<?xml version="1.0" encoding="utf-8"?>
<!-- Generator: Adobe Illustrator 16.0.0, SVG Export Plug-In . SVG Version: 6.00 Build 0)  -->
<!DOCTYPE svg PUBLIC "-//W3C//DTD SVG 1.1//EN" "http://www.w3.org/Graphics/SVG/1.1/DTD/svg11.dtd">
<svg version="1.1" id="Layer_1" xmlns="http://www.w3.org/2000/svg" xmlns:xlink="http://www.w3.org/1999/xlink" x="0px" y="0px"
	 width="634px" height="477px" viewBox="0 0 634 477" enable-background="new 0 0 634 477" xml:space="preserve">
<g>
	<path fill="#F7323F" d="M38.294,89.935H7.376l11.594-7.729L38.294,20.37l-7.729-7.729h30.918l19.324,3.865l7.729,15.459
		L73.077,51.288l-19.324,7.729l-11.594-3.865v-3.865h7.729l11.594-3.865l11.594-15.459L69.212,20.37l-7.729-3.865h-7.729
		l-3.865,3.865L30.565,82.206L38.294,89.935z"/>
	<path fill="#F7323F" d="M111.817,62.882H92.493v-3.865h11.594l7.729-3.865V43.558h-7.729L92.493,55.152l-7.729,15.459l3.865,11.594
		h7.729l15.459-15.459l3.865,3.865L100.223,86.07l-7.729,3.865h-7.729l-7.729-3.865l-3.865-15.459l11.594-23.188l19.324-11.594
		l15.459,3.865l3.865,7.729v7.729L111.817,62.882z"/>
	<path fill="#F7323F" d="M140.799,39.693l11.594-3.865l3.865,3.865v3.865l-3.865,7.729l11.594-11.594l11.594-3.865l11.594,3.865
		v11.594l-19.324,30.918h3.865l19.324-19.324l3.865,3.865L175.582,86.07l-7.729,3.865h-7.729l-3.865-3.865v-3.865l19.324-34.783
		l-3.865-3.865l-7.729,3.865l-11.594,11.594l-15.459,30.918h-7.729l-3.865-3.865l23.188-42.512h-3.865L125.34,62.882l-3.865-3.865
		L140.799,39.693z"/>
	<path fill="#F7323F" d="M235.578,55.152V43.558h-7.729l-11.594,11.594l-7.729,15.459l3.865,11.594h7.729l15.459-15.459l3.865,3.865
		L223.983,86.07l-7.729,3.865h-7.729l-7.729-3.865l-3.865-15.459l11.594-23.188l19.324-11.594l15.459,3.865l3.865,7.729v7.729
		H235.578z"/>
	<path fill="#F7323F" d="M260.792,12.64V8.775h27.053l-19.324,38.647l7.729-7.729l11.594-3.865l11.594,3.865v11.594l-19.324,30.918
		h3.865l19.324-19.324l3.865,3.865L287.845,86.07l-7.729,3.865h-7.729l-3.865-3.865v-3.865l19.324-34.783l-3.865-3.865l-7.729,3.865
		l-11.594,11.594l-15.459,30.918h-7.729l-3.865-3.865l19.324-34.783l15.459-38.647H260.792z"/>
	<path fill="#F7323F" d="M347.842,62.882h-19.323v-3.865h11.595l7.729-3.865V43.558h-7.729l-11.595,11.594l-7.729,15.459
		l3.865,11.594h7.729l15.459-15.459l3.865,3.865L336.248,86.07l-7.729,3.865h-7.729l-7.729-3.865l-3.864-15.459l11.594-23.188
		l19.324-11.594l15.459,3.865l3.864,7.729v7.729L347.842,62.882z M351.707,12.64h3.865l3.864,3.865v3.865l-19.323,7.729h-3.865
		L351.707,12.64z"/>
	<path fill="#F7323F" d="M398.148,62.882h-19.323v-3.865h11.595l7.729-3.865V43.558h-7.729l-11.595,11.594l-7.729,15.459
		l3.865,11.594h7.729l15.459-15.459l3.865,3.865L386.555,86.07l-7.729,3.865h-7.729l-7.729-3.865l-3.864-15.459l11.594-23.188
		l19.324-11.594l15.459,3.865l3.864,7.729v7.729L398.148,62.882z"/>
</g>
<g>
	<path fill="#F7323F" d="M22.835,170.44l7.729-7.729v-7.729L26.7,139.522v-7.729l3.865-7.729l15.459-3.865l11.594,3.865v11.594
		l-7.729,3.865l-3.865-3.865v-11.594l-7.729,3.865v7.729l3.865,19.324v7.729l-7.729,7.729l-11.594,3.865h-7.729l-7.729-3.865
		v-11.594l7.729-3.865l3.865,3.865v11.594H22.835z"/>
	<path fill="#F7323F" d="M109.79,170.44l-7.729,3.865h-3.865l-3.865-3.865v-7.729l-11.594,11.594h-7.729l-7.729-3.865l-3.865-11.594
		l19.324-30.918h-3.865l-19.324,19.324l-3.865-3.865l19.324-19.324l11.594-3.865l7.729,3.865v3.865l-19.324,30.918l3.865,7.729
		h3.865l15.459-15.459l15.459-27.053h7.729l3.865,3.865l-23.188,38.647h3.865l19.324-19.324l3.865,3.865L109.79,170.44z"/>
	<path fill="#F7323F" d="M146.597,124.063l11.594-3.865l3.865,3.865v3.865l-7.729,11.594h3.865l11.594-15.459l7.729-3.865
		l7.729,3.865l-3.865,11.594h-11.594l-11.594,7.729l-15.459,30.918h-7.729l-3.865-3.865l23.188-42.512h-3.865l-19.324,19.324
		l-3.865-3.865L146.597,124.063z"/>
	<path fill="#F7323F" d="M220.214,166.575l19.324-19.324l3.865,3.865l-19.324,19.324l-11.594,3.865l-7.729-3.865v-3.865
		l30.918-69.565h-11.594v-3.865h27.053l-34.783,73.43H220.214z"/>
	<path fill="#F7323F" d="M283.98,147.251h-19.324v-3.865h11.594l7.729-3.865v-11.594h-7.729l-11.594,11.594l-7.729,15.459
		l3.865,11.594h7.729l15.459-15.459l3.865,3.865l-15.459,15.459l-7.729,3.865h-7.729l-7.729-3.865l-3.865-15.459l11.594-23.188
		l19.324-11.594l15.459,3.865l3.865,7.729v7.729L283.98,147.251z"/>
	<path fill="#F7323F" d="M365.328,139.522v-11.594h-7.73l-11.594,11.594l-7.729,15.459l3.864,11.594h7.73l15.459-15.459l3.864,3.865
		l-15.459,15.459l-7.729,3.865h-7.729l-7.729-3.865l-3.865-15.459l11.595-23.188l19.323-11.594l15.459,3.865l3.865,7.729v7.729
		H365.328z"/>
	<path fill="#F7323F" d="M386.678,170.44l-7.73-15.459l11.595-23.188l19.323-11.594l15.459,3.865l7.73,15.459L421.46,162.71
		l-19.323,11.594h-7.73L386.678,170.44z M398.271,139.522l-7.729,15.459l3.864,11.594h7.73l11.594-11.594l7.729-15.459
		l-3.864-11.594h-7.73L398.271,139.522z"/>
	<path fill="#F7323F" d="M450.539,166.575l19.324-19.324l3.864,3.865l-19.323,19.324l-7.73,3.865h-7.729l-3.865-3.865v-3.865
		l19.324-38.647h-7.73v-3.865h7.73l7.729-3.865l3.865-11.594h7.729l-7.729,15.459h11.594v3.865h-11.594l-19.324,38.647H450.539z"/>
	<path fill="#F7323F" d="M518.266,147.251h-19.324v-3.865h11.594l7.73-3.865v-11.594h-7.73l-11.594,11.594l-7.729,15.459
		l3.864,11.594h7.73l15.459-15.459l3.864,3.865l-15.459,15.459l-7.729,3.865h-7.729l-7.729-3.865l-3.865-15.459l11.595-23.188
		l19.323-11.594l15.459,3.865l3.865,7.729v7.729L518.266,147.251z M522.13,97.01h3.864l3.865,3.865v3.865l-19.324,7.729h-3.864
		L522.13,97.01z"/>
</g>
<g>
	<path fill="#F7323F" d="M238.531,261.557l-0.966-2.898v-3.865l0.966-3.865l2.898-3.865l3.865-2.898l2.898-0.966l0.966,0.966
		l-2.898,0.966l-2.898,2.898l-1.933,3.865l-0.966,3.865v4.831l1.932,3.864l-0.966,0.966L238.531,261.557z"/>
	<path fill="#F7323F" d="M252.058,250.929h-0.966l-1.932-2.898l0.966-2.898l3.865-1.933h2.899l3.864,1.933l0.966,2.898v1.932
		l-3.865,4.831l-3.865,2.898l-4.831,2.899l5.797,0.966l3.865-4.831h0.966l-1.933,6.764l-2.898-0.966h-9.662v-0.966l8.696-5.797
		l2.899-2.898l1.932-3.865l-0.966-3.864l-2.898-0.966l-1.933,0.966l-0.966,1.932V250.929z"/>
	<path fill="#F7323F" d="M273.312,243.199l-5.797,17.392l1.932,1.932h-7.729l2.899-1.932l3.864-11.595h-2.898v-0.966l3.865-1.933
		l1.933-1.932L273.312,243.199z"/>
	<path fill="#F7323F" d="M274.278,261.557v-0.966l0.966-1.933h0.966l1.933,0.966v0.966l-0.966,1.932h-0.966L274.278,261.557z"/>
	<path fill="#F7323F" d="M286.838,262.523h-1.933l-3.864-1.932l-0.966-2.899v-4.831l1.932-4.831l1.933-2.898l3.865-1.933h1.932
		l3.865,1.933l0.966,2.898v4.831l-1.933,4.831l-1.932,2.899L286.838,262.523z M290.703,245.132l-1.932-0.966l-1.933,0.966
		l-1.933,3.864l-1.932,7.729l0.966,3.865l1.932,0.966l1.933-0.966l1.932-3.865l1.933-7.729L290.703,245.132z"/>
	<path fill="#F7323F" d="M302.296,246.098l-2.898,5.797l1.933-0.966l2.898-0.966l2.898,0.966l1.933,2.898v3.865l-2.899,2.899
		l-3.865,1.932h-1.932l-3.865-1.932l-0.966-2.899l1.932-2.898h0.966v3.865l0.966,1.933l1.933,0.966l1.932-0.966l2.898-2.899v-3.865
		l-1.932-1.932h-1.933l-3.865,1.932l-0.966-0.966l3.865-9.662h9.662l-0.967,2.898H302.296z"/>
	<path fill="#F7323F" d="M320.652,254.793v0.966h-7.729v-0.966H320.652z"/>
	<path fill="#F7323F" d="M327.415,250.929h-0.966l-1.933-2.898l0.966-2.898l3.865-1.933h2.898l3.864,1.933l0.967,2.898v1.932
		l-3.865,4.831l-3.864,2.898l-4.831,2.899l5.797,0.966l3.864-4.831h0.967l-1.933,6.764l-2.898-0.966h-9.662v-0.966l8.696-5.797
		l2.898-2.898l1.932-3.865l-0.966-3.864l-2.898-0.966l-1.933,0.966l-0.966,1.932V250.929z"/>
	<path fill="#F7323F" d="M345.771,262.523h-1.933l-3.864-1.932l-0.967-2.899v-4.831l1.933-4.831l1.933-2.898l3.864-1.933h1.933
		l3.865,1.933l0.966,2.898v4.831l-1.933,4.831l-1.932,2.899L345.771,262.523z M349.637,245.132l-1.933-0.966l-1.933,0.966
		l-1.933,3.864l-1.933,7.729l0.967,3.865l1.933,0.966l1.932-0.966l1.933-3.865l1.933-7.729L349.637,245.132z"/>
	<path fill="#F7323F" d="M365.095,243.199l-5.797,17.392l1.933,1.932h-7.729l2.898-1.932l3.864-11.595h-2.898v-0.966l3.865-1.933
		l1.932-1.932L365.095,243.199z"/>
	<path fill="#F7323F" d="M370.891,250.929l-0.967-1.933v-1.932l0.967-1.932l3.864-1.933h1.933l2.898,0.966l1.933,2.898v1.932
		l-0.966,1.933l-1.933,0.966l-2.898,0.966l2.898,0.966l0.966,1.933v1.932l-1.932,2.899l-4.831,1.932h-1.933l-3.865-1.932
		l-0.966-2.899l0.966-2.898l1.933-1.932l3.865-0.966L370.891,250.929z M368.958,256.726v1.933l0.966,1.933l1.933,0.966l2.898-0.966
		l1.933-2.899v-1.932l-0.966-1.933l-1.933-0.966l-2.898,0.966L368.958,256.726z M373.789,245.132l-0.966,1.932v2.898l1.932,1.933
		l2.899-0.966l0.966-1.933v-2.898l-1.933-1.932L373.789,245.132z"/>
	<path fill="#F7323F" d="M390.214,247.064l0.967,2.898v3.865l-0.967,3.865l-2.898,3.865l-3.864,2.898l-2.898,0.966l-0.967-0.966
		l2.898-0.966l2.898-2.898l1.933-3.865l0.967-3.864v-4.831l-1.933-3.865l0.966-0.966L390.214,247.064z"/>
</g>
<g>
	<path fill="#F7323F" d="M153.803,383.578l11.594-7.729l46.377-61.836v-3.865l11.594-7.729v73.43l7.729,7.729h-27.053l7.729-7.729
		v-11.594l-3.865-3.865h-23.188l-11.594,15.459l7.729,7.729H153.803z M192.451,348.795l-3.865,7.729h19.324l3.865-3.865v-30.918
		L192.451,348.795z"/>
	<path fill="#F7323F" d="M279.499,344.93l-3.865-3.865l3.865-7.729h7.729l3.865,3.865v7.729l-7.729,15.459l-15.459,15.459
		l-19.324,7.729h-7.729l-3.865-3.865v-3.865l23.188-38.647h-3.865l-19.324,19.324l-3.865-3.865l19.324-19.324l11.594-3.865
		l7.729,3.865v7.729l-23.188,34.783h3.865l11.594-3.865l15.459-15.459l3.865-11.594H279.499z"/>
	<path fill="#F7323F" d="M331.766,375.848h3.864l19.324-19.324l3.865,3.865l-19.324,19.324l-11.594,3.865l-3.865-3.865v-7.729
		l-11.595,11.594h-7.729l-7.729-3.865l-3.865-15.459l7.729-19.324l19.324-15.459l15.458,3.865l3.865,7.729l7.729-11.594l3.864,3.865
		L331.766,375.848z M324.036,364.254l11.594-15.459v-3.865l-3.864-7.729h-7.729l-11.595,11.594l-7.729,15.459l3.865,11.594h3.864
		L324.036,364.254z"/>
	<path fill="#F7323F" d="M376.302,333.336l11.595-3.865l3.864,3.865v3.865l-7.729,11.594h3.864l11.595-15.459l7.729-3.865
		l7.73,3.865l-3.865,11.594h-11.594l-11.595,7.729l-15.459,30.918h-7.729l-3.865-3.865l23.189-42.512h-3.865l-19.324,19.324
		l-3.864-3.865L376.302,333.336z"/>
	<path fill="#F7323F" d="M447.892,375.848h3.865l19.324-19.324l3.864,3.865l-19.323,19.324l-11.595,3.865l-3.864-3.865v-7.729
		l-11.595,11.594h-7.729l-7.729-3.865l-3.864-15.459l7.729-19.324l19.324-15.459l15.459,3.865l3.865,7.729l7.729-11.594l3.865,3.865
		L447.892,375.848z M440.163,364.254l11.594-15.459v-3.865l-3.865-7.729h-7.729l-11.595,11.594l-7.729,15.459l3.865,11.594h3.864
		L440.163,364.254z"/>
</g>
<g>
	<path fill="#F7323F" d="M93.666,390.65l19.324,3.865l3.865,15.46l-11.594,11.594l-7.729,3.865l11.594,3.863l3.865,15.459
		l-11.594,15.459l-19.324,7.73H43.424l7.729-7.73l19.324-61.836l-7.729-7.729H93.666z M66.612,464.08h7.729l15.459-7.729
		l7.729-11.596l-3.865-11.594l-7.729-3.865H74.342v-3.863h7.729l11.594-3.865l7.729-11.594v-11.596l-7.729-3.864h-7.729
		l-3.865,3.864l-19.324,61.836L66.612,464.08z"/>
	<path fill="#F7323F" d="M126.608,464.08l-7.729-15.459l11.594-23.188l19.324-11.596l15.459,3.865l7.729,15.459l-11.594,23.189
		l-19.324,11.594h-7.729L126.608,464.08z M138.202,433.162l-7.729,15.459l3.865,11.594h7.729l11.594-11.594l7.729-15.459
		l-3.865-11.594h-7.729L138.202,433.162z"/>
	<path fill="#F7323F" d="M190.47,460.215l19.324-19.322l3.865,3.863l-19.324,19.324l-11.594,3.865l-7.729-3.865v-3.865
		l30.918-69.565h-11.594v-3.865h27.053l-34.783,73.43H190.47z"/>
	<path fill="#F7323F" d="M246.603,464.08v-7.729l-11.594,11.594h-7.729l-7.729-3.865l-3.865-15.459l7.729-19.324l19.324-15.459
		l15.459,3.865l3.865,7.73l11.594-34.784h-11.594v-3.865h27.053l-34.783,73.43h3.865l19.324-19.322l3.865,3.863l-19.324,19.324
		l-7.729,3.865h-3.865L246.603,464.08z M246.603,448.621l11.594-15.459v-3.865l-3.865-7.729h-7.729l-11.594,11.594l-7.729,15.459
		l3.865,11.594h3.865L246.603,448.621z"/>
	<path fill="#F7323F" d="M335.678,467.945H304.76l11.594-7.73l19.324-61.836l-7.729-7.729h30.918l-11.594,7.729l-19.324,61.836
		L335.678,467.945z"/>
	<path fill="#F7323F" d="M360.893,460.215l19.323-19.322l3.865,3.863l-19.324,19.324l-7.729,3.865h-7.73l-3.864-3.865v-3.865
		l19.323-38.646h-7.729v-3.865h7.729l7.73-3.865l3.864-11.594h7.729l-7.729,15.459h11.595v3.865h-11.595l-19.323,38.646H360.893z"/>
	<path fill="#F7323F" d="M428.618,460.215h3.865l19.324-19.322l3.864,3.863l-19.323,19.324l-11.595,3.865l-3.864-3.865v-7.729
		l-11.595,11.594h-7.729l-7.729-3.865l-3.864-15.459l7.729-19.324l19.324-15.459l15.459,3.865l3.865,7.73l7.729-11.596l3.865,3.865
		L428.618,460.215z M420.89,448.621l11.594-15.459v-3.865l-3.865-7.729h-7.729l-11.595,11.594l-7.729,15.459l3.865,11.594h3.864
		L420.89,448.621z"/>
	<path fill="#F7323F" d="M469.29,460.215l19.324-19.322l3.864,3.863l-19.323,19.324l-11.595,3.865l-7.729-3.865v-3.865
		l30.918-69.565h-11.594v-3.865h27.053l-34.783,73.43H469.29z"/>
	<path fill="#F7323F" d="M509.868,417.703l11.594-3.865l7.729,3.865v3.865l-23.188,38.646h3.865l19.323-19.322l3.864,3.863
		l-19.323,19.324l-7.729,3.865h-7.729l-3.864-3.865v-3.865l23.188-38.646h-3.864l-19.323,19.324l-3.865-3.865L509.868,417.703z
		 M525.327,402.244v-3.865l3.864-7.729h3.864l7.73,3.865v3.864l-3.865,7.73h-3.865L525.327,402.244z"/>
	<path fill="#F7323F" d="M573.729,433.162v-11.594h-7.73l-11.594,11.594l-7.729,15.459l3.864,11.594h7.73l15.459-15.459l3.864,3.865
		l-15.459,15.459l-7.729,3.865h-7.729l-7.729-3.865l-3.865-15.459l11.595-23.188l19.323-11.596l15.459,3.865l3.865,7.73v7.729
		H573.729z"/>
</g>
</svg>
